<mxfile host="Electron" agent="Mozilla/5.0 (Windows NT 10.0; Win64; x64) AppleWebKit/537.36 (KHTML, like Gecko) draw.io/24.7.17 Chrome/128.0.6613.36 Electron/32.0.1 Safari/537.36" version="24.7.17">
  <diagram name="Seite-1" id="boMQOyA3kiT0kEMW0L_Z">
    <mxGraphModel dx="1687" dy="1126" grid="1" gridSize="10" guides="1" tooltips="1" connect="1" arrows="1" fold="1" page="1" pageScale="1" pageWidth="1169" pageHeight="827" math="0" shadow="0">
      <root>
        <mxCell id="0" />
        <mxCell id="1" parent="0" />
        <mxCell id="i9rdZxzAufRbEw3TYQ_S-1" value="" style="rounded=0;whiteSpace=wrap;html=1;fillColor=#f0a30a;fontColor=#000000;strokeColor=#BD7000;fontSize=16;" parent="1" vertex="1">
          <mxGeometry x="150" y="40" width="720" height="100" as="geometry" />
        </mxCell>
        <mxCell id="i9rdZxzAufRbEw3TYQ_S-3" value="Web Interface" style="rounded=0;whiteSpace=wrap;html=1;fillColor=#e3c800;fontColor=#000000;strokeColor=#B09500;fontSize=16;" parent="1" vertex="1">
          <mxGeometry x="200" y="60" width="240" height="60" as="geometry" />
        </mxCell>
        <mxCell id="i9rdZxzAufRbEw3TYQ_S-4" value="External Programs" style="rounded=0;whiteSpace=wrap;html=1;fillColor=#e3c800;fontColor=#000000;strokeColor=#B09500;fontSize=16;" parent="1" vertex="1">
          <mxGeometry x="580" y="60" width="250" height="60" as="geometry" />
        </mxCell>
        <mxCell id="i9rdZxzAufRbEw3TYQ_S-5" value="" style="rounded=0;whiteSpace=wrap;html=1;fillColor=#fad9d5;strokeColor=#ae4132;fontSize=16;" parent="1" vertex="1">
          <mxGeometry x="150" y="170" width="720" height="100" as="geometry" />
        </mxCell>
        <mxCell id="i9rdZxzAufRbEw3TYQ_S-6" value="Log File" style="rounded=0;whiteSpace=wrap;html=1;fillColor=#f8cecc;gradientColor=#ea6b66;strokeColor=#b85450;fontSize=16;" parent="1" vertex="1">
          <mxGeometry x="190" y="190" width="120" height="60" as="geometry" />
        </mxCell>
        <mxCell id="i9rdZxzAufRbEw3TYQ_S-7" value="Status File" style="rounded=0;whiteSpace=wrap;html=1;fillColor=#f8cecc;gradientColor=#ea6b66;strokeColor=#b85450;fontSize=16;" parent="1" vertex="1">
          <mxGeometry x="320" y="190" width="120" height="60" as="geometry" />
        </mxCell>
        <mxCell id="i9rdZxzAufRbEw3TYQ_S-8" style="edgeStyle=orthogonalEdgeStyle;rounded=0;orthogonalLoop=1;jettySize=auto;html=1;entryX=0.5;entryY=0;entryDx=0;entryDy=0;startArrow=classic;startFill=1;endArrow=none;endFill=0;strokeColor=#1D0101;fontSize=16;" parent="1" source="i9rdZxzAufRbEw3TYQ_S-9" target="i9rdZxzAufRbEw3TYQ_S-12" edge="1">
          <mxGeometry relative="1" as="geometry" />
        </mxCell>
        <mxCell id="i9rdZxzAufRbEw3TYQ_S-9" value="Retention" style="rounded=0;whiteSpace=wrap;html=1;fillColor=#f8cecc;gradientColor=#ea6b66;strokeColor=#b85450;fontSize=16;" parent="1" vertex="1">
          <mxGeometry x="450" y="190" width="120" height="60" as="geometry" />
        </mxCell>
        <mxCell id="i9rdZxzAufRbEw3TYQ_S-10" value="Config Files" style="rounded=0;whiteSpace=wrap;html=1;fillColor=#f8cecc;gradientColor=#ea6b66;strokeColor=#b85450;fontSize=16;" parent="1" vertex="1">
          <mxGeometry x="580" y="190" width="120" height="60" as="geometry" />
        </mxCell>
        <mxCell id="i9rdZxzAufRbEw3TYQ_S-11" value="&lt;font style=&quot;font-size: 16px;&quot; color=&quot;#1d0101&quot;&gt;External Command File&lt;/font&gt;" style="rounded=0;whiteSpace=wrap;html=1;fillColor=#e1d5e7;strokeColor=#9673a6;fontSize=16;" parent="1" vertex="1">
          <mxGeometry x="710" y="190" width="120" height="60" as="geometry" />
        </mxCell>
        <mxCell id="i9rdZxzAufRbEw3TYQ_S-12" value="Naemon Daemon&lt;div style=&quot;font-size: 16px;&quot;&gt;(Core Logic)&lt;div style=&quot;font-size: 16px;&quot;&gt;&lt;br style=&quot;font-size: 16px;&quot;&gt;&lt;/div&gt;&lt;div style=&quot;font-size: 16px;&quot;&gt;&lt;br style=&quot;font-size: 16px;&quot;&gt;&lt;/div&gt;&lt;div style=&quot;font-size: 16px;&quot;&gt;&lt;br style=&quot;font-size: 16px;&quot;&gt;&lt;/div&gt;&lt;div style=&quot;font-size: 16px;&quot;&gt;&lt;br style=&quot;font-size: 16px;&quot;&gt;&lt;/div&gt;&lt;/div&gt;" style="rounded=0;whiteSpace=wrap;html=1;fillColor=#0050ef;strokeColor=#001DBC;fontColor=#ffffff;fontSize=16;" parent="1" vertex="1">
          <mxGeometry x="150" y="300" width="720" height="160" as="geometry" />
        </mxCell>
        <mxCell id="i9rdZxzAufRbEw3TYQ_S-13" value="Monitoring&lt;div style=&quot;font-size: 16px;&quot;&gt;Logic&lt;/div&gt;" style="rounded=0;whiteSpace=wrap;html=1;fillColor=#1ba1e2;strokeColor=#006EAF;fontColor=#ffffff;fontSize=16;" parent="1" vertex="1">
          <mxGeometry x="200" y="380" width="120" height="60" as="geometry" />
        </mxCell>
        <mxCell id="i9rdZxzAufRbEw3TYQ_S-14" value="" style="edgeStyle=orthogonalEdgeStyle;rounded=0;orthogonalLoop=1;jettySize=auto;html=1;fontSize=16;" parent="1" source="i9rdZxzAufRbEw3TYQ_S-15" target="i9rdZxzAufRbEw3TYQ_S-22" edge="1">
          <mxGeometry relative="1" as="geometry" />
        </mxCell>
        <mxCell id="i9rdZxzAufRbEw3TYQ_S-15" value="Notification&lt;div style=&quot;font-size: 16px;&quot;&gt;Logic&lt;/div&gt;" style="rounded=0;whiteSpace=wrap;html=1;fillColor=#1ba1e2;strokeColor=#006EAF;fontColor=#ffffff;fontSize=16;" parent="1" vertex="1">
          <mxGeometry x="350" y="380" width="120" height="60" as="geometry" />
        </mxCell>
        <mxCell id="i9rdZxzAufRbEw3TYQ_S-16" value="Event&lt;div style=&quot;font-size: 16px;&quot;&gt;Logic&lt;/div&gt;" style="rounded=0;whiteSpace=wrap;html=1;fillColor=#1ba1e2;strokeColor=#006EAF;fontColor=#ffffff;fontSize=16;" parent="1" vertex="1">
          <mxGeometry x="490" y="380" width="190" height="60" as="geometry" />
        </mxCell>
        <mxCell id="0J8RiQjhzEICWL7mDS2G-1" style="edgeStyle=orthogonalEdgeStyle;rounded=0;orthogonalLoop=1;jettySize=auto;html=1;entryX=0.5;entryY=0;entryDx=0;entryDy=0;strokeColor=#1D0101;" parent="1" source="i9rdZxzAufRbEw3TYQ_S-17" target="i9rdZxzAufRbEw3TYQ_S-27" edge="1">
          <mxGeometry relative="1" as="geometry" />
        </mxCell>
        <mxCell id="i9rdZxzAufRbEw3TYQ_S-17" value="Performance&lt;div style=&quot;font-size: 16px;&quot;&gt;Logic&lt;/div&gt;" style="rounded=0;whiteSpace=wrap;html=1;fillColor=#1ba1e2;strokeColor=#006EAF;fontColor=#ffffff;fontSize=16;" parent="1" vertex="1">
          <mxGeometry x="730" y="380" width="120" height="60" as="geometry" />
        </mxCell>
        <mxCell id="i9rdZxzAufRbEw3TYQ_S-18" value="" style="rounded=0;whiteSpace=wrap;html=1;fillColor=#647687;fontColor=#ffffff;strokeColor=#314354;fontSize=16;" parent="1" vertex="1">
          <mxGeometry x="150" y="490" width="720" height="100" as="geometry" />
        </mxCell>
        <mxCell id="i9rdZxzAufRbEw3TYQ_S-19" style="edgeStyle=orthogonalEdgeStyle;rounded=0;orthogonalLoop=1;jettySize=auto;html=1;exitX=0.5;exitY=0;exitDx=0;exitDy=0;entryX=0.5;entryY=1;entryDx=0;entryDy=0;startArrow=classic;startFill=1;fontSize=16;strokeColor=#1D0101;" parent="1" source="i9rdZxzAufRbEw3TYQ_S-20" target="i9rdZxzAufRbEw3TYQ_S-13" edge="1">
          <mxGeometry relative="1" as="geometry" />
        </mxCell>
        <mxCell id="i9rdZxzAufRbEw3TYQ_S-20" value="&lt;font style=&quot;font-size: 16px;&quot; color=&quot;#1d0101&quot;&gt;Plugins&lt;/font&gt;" style="rounded=0;whiteSpace=wrap;html=1;fillColor=#bac8d3;strokeColor=#23445d;fontSize=16;" parent="1" vertex="1">
          <mxGeometry x="200" y="510" width="120" height="60" as="geometry" />
        </mxCell>
        <mxCell id="i9rdZxzAufRbEw3TYQ_S-21" style="edgeStyle=orthogonalEdgeStyle;rounded=0;orthogonalLoop=1;jettySize=auto;html=1;entryX=0.5;entryY=1;entryDx=0;entryDy=0;startArrow=classic;startFill=1;endArrow=none;endFill=0;fontSize=16;strokeColor=#1D0101;" parent="1" source="i9rdZxzAufRbEw3TYQ_S-22" target="i9rdZxzAufRbEw3TYQ_S-15" edge="1">
          <mxGeometry relative="1" as="geometry" />
        </mxCell>
        <mxCell id="i9rdZxzAufRbEw3TYQ_S-22" value="&lt;font style=&quot;font-size: 16px;&quot; color=&quot;#1d0101&quot;&gt;Notification&lt;/font&gt;&lt;div style=&quot;font-size: 16px;&quot;&gt;&lt;font style=&quot;font-size: 16px;&quot; color=&quot;#1d0101&quot;&gt;Commands&lt;/font&gt;&lt;/div&gt;" style="rounded=0;whiteSpace=wrap;html=1;fillColor=#bac8d3;strokeColor=#23445d;fontSize=16;" parent="1" vertex="1">
          <mxGeometry x="350" y="510" width="120" height="60" as="geometry" />
        </mxCell>
        <mxCell id="i9rdZxzAufRbEw3TYQ_S-23" style="edgeStyle=orthogonalEdgeStyle;rounded=0;orthogonalLoop=1;jettySize=auto;html=1;curved=1;startArrow=classic;startFill=1;endArrow=none;endFill=0;fontSize=16;strokeColor=#1D0101;" parent="1" source="i9rdZxzAufRbEw3TYQ_S-24" target="i9rdZxzAufRbEw3TYQ_S-16" edge="1">
          <mxGeometry relative="1" as="geometry" />
        </mxCell>
        <mxCell id="i9rdZxzAufRbEw3TYQ_S-24" value="&lt;font style=&quot;font-size: 16px;&quot; color=&quot;#1d0101&quot;&gt;Event&lt;/font&gt;&lt;div style=&quot;font-size: 16px;&quot;&gt;&lt;font style=&quot;font-size: 16px;&quot; color=&quot;#1d0101&quot;&gt;Handlers&lt;/font&gt;&lt;/div&gt;" style="rounded=0;whiteSpace=wrap;html=1;fillColor=#bac8d3;strokeColor=#23445d;fontSize=16;" parent="1" vertex="1">
          <mxGeometry x="490" y="510" width="90" height="60" as="geometry" />
        </mxCell>
        <mxCell id="i9rdZxzAufRbEw3TYQ_S-25" style="edgeStyle=orthogonalEdgeStyle;rounded=0;orthogonalLoop=1;jettySize=auto;html=1;entryX=0.5;entryY=1;entryDx=0;entryDy=0;curved=1;startArrow=classic;startFill=1;endArrow=none;endFill=0;fontSize=16;strokeColor=#1D0101;" parent="1" source="i9rdZxzAufRbEw3TYQ_S-26" target="i9rdZxzAufRbEw3TYQ_S-16" edge="1">
          <mxGeometry relative="1" as="geometry" />
        </mxCell>
        <mxCell id="i9rdZxzAufRbEw3TYQ_S-26" value="&lt;font style=&quot;font-size: 16px;&quot; color=&quot;#1d0101&quot;&gt;COxP&lt;/font&gt;&lt;div style=&quot;font-size: 16px;&quot;&gt;&lt;font style=&quot;font-size: 16px;&quot; color=&quot;#1d0101&quot;&gt;Commands&lt;/font&gt;&lt;/div&gt;" style="rounded=0;whiteSpace=wrap;html=1;fillColor=#bac8d3;strokeColor=#23445d;fontSize=16;" parent="1" vertex="1">
          <mxGeometry x="595" y="510" width="85" height="60" as="geometry" />
        </mxCell>
        <mxCell id="i9rdZxzAufRbEw3TYQ_S-27" value="&lt;font style=&quot;font-size: 16px;&quot; color=&quot;#1d0101&quot;&gt;Performance&lt;/font&gt;&lt;div style=&quot;font-size: 16px;&quot;&gt;&lt;font style=&quot;font-size: 16px;&quot; color=&quot;#1d0101&quot;&gt;Processors&lt;/font&gt;&lt;/div&gt;" style="rounded=0;whiteSpace=wrap;html=1;fillColor=#bac8d3;strokeColor=#23445d;fontSize=16;" parent="1" vertex="1">
          <mxGeometry x="730" y="510" width="120" height="60" as="geometry" />
        </mxCell>
        <mxCell id="i9rdZxzAufRbEw3TYQ_S-28" value="" style="rounded=0;whiteSpace=wrap;html=1;fillColor=#f5f5f5;fontColor=#333333;strokeColor=#666666;fontSize=16;" parent="1" vertex="1">
          <mxGeometry x="150" y="610" width="720" height="100" as="geometry" />
        </mxCell>
        <mxCell id="i9rdZxzAufRbEw3TYQ_S-29" style="edgeStyle=orthogonalEdgeStyle;rounded=0;orthogonalLoop=1;jettySize=auto;html=1;entryX=0.5;entryY=1;entryDx=0;entryDy=0;startArrow=classic;startFill=1;strokeColor=#1D0101;fontSize=16;" parent="1" source="i9rdZxzAufRbEw3TYQ_S-30" target="i9rdZxzAufRbEw3TYQ_S-20" edge="1">
          <mxGeometry relative="1" as="geometry" />
        </mxCell>
        <mxCell id="i9rdZxzAufRbEw3TYQ_S-30" value="&lt;font style=&quot;font-size: 16px;&quot; color=&quot;#1d0101&quot;&gt;Host and&lt;/font&gt;&lt;div style=&quot;font-size: 16px;&quot;&gt;&lt;font style=&quot;font-size: 16px;&quot; color=&quot;#1d0101&quot;&gt;Services&lt;/font&gt;&lt;/div&gt;" style="rounded=0;whiteSpace=wrap;html=1;fillColor=#dae8fc;strokeColor=#6c8ebf;fontSize=16;" parent="1" vertex="1">
          <mxGeometry x="200" y="630" width="120" height="60" as="geometry" />
        </mxCell>
        <mxCell id="i9rdZxzAufRbEw3TYQ_S-31" style="edgeStyle=orthogonalEdgeStyle;rounded=0;orthogonalLoop=1;jettySize=auto;html=1;startArrow=classic;startFill=1;strokeColor=#1D0101;fontSize=16;" parent="1" source="i9rdZxzAufRbEw3TYQ_S-32" target="i9rdZxzAufRbEw3TYQ_S-22" edge="1">
          <mxGeometry relative="1" as="geometry" />
        </mxCell>
        <mxCell id="i9rdZxzAufRbEw3TYQ_S-32" value="&lt;font style=&quot;font-size: 16px;&quot; color=&quot;#1d0101&quot;&gt;Contacts&lt;/font&gt;" style="rounded=0;whiteSpace=wrap;html=1;fillColor=#dae8fc;strokeColor=#6c8ebf;fontSize=16;" parent="1" vertex="1">
          <mxGeometry x="350" y="630" width="120" height="60" as="geometry" />
        </mxCell>
        <mxCell id="i9rdZxzAufRbEw3TYQ_S-33" value="&lt;font style=&quot;font-size: 16px;&quot; color=&quot;#1d0101&quot;&gt;External&lt;/font&gt;&lt;div style=&quot;font-size: 16px;&quot;&gt;&lt;font style=&quot;font-size: 16px;&quot; color=&quot;#1d0101&quot;&gt;Applications&lt;/font&gt;&lt;/div&gt;" style="rounded=0;whiteSpace=wrap;html=1;fillColor=#dae8fc;strokeColor=#6c8ebf;fontSize=16;" parent="1" vertex="1">
          <mxGeometry x="490" y="630" width="360" height="60" as="geometry" />
        </mxCell>
        <mxCell id="i9rdZxzAufRbEw3TYQ_S-34" style="edgeStyle=orthogonalEdgeStyle;rounded=0;orthogonalLoop=1;jettySize=auto;html=1;entryX=0.126;entryY=0.056;entryDx=0;entryDy=0;entryPerimeter=0;startArrow=classic;startFill=1;strokeColor=#1D0101;fontSize=16;" parent="1" source="i9rdZxzAufRbEw3TYQ_S-24" target="i9rdZxzAufRbEw3TYQ_S-33" edge="1">
          <mxGeometry relative="1" as="geometry" />
        </mxCell>
        <mxCell id="i9rdZxzAufRbEw3TYQ_S-35" style="edgeStyle=orthogonalEdgeStyle;rounded=0;orthogonalLoop=1;jettySize=auto;html=1;entryX=0.41;entryY=0.167;entryDx=0;entryDy=0;entryPerimeter=0;startArrow=classic;startFill=1;strokeColor=#1D0101;fontSize=16;" parent="1" source="i9rdZxzAufRbEw3TYQ_S-26" target="i9rdZxzAufRbEw3TYQ_S-33" edge="1">
          <mxGeometry relative="1" as="geometry" />
        </mxCell>
        <mxCell id="i9rdZxzAufRbEw3TYQ_S-36" style="edgeStyle=orthogonalEdgeStyle;rounded=0;orthogonalLoop=1;jettySize=auto;html=1;entryX=0.833;entryY=0.167;entryDx=0;entryDy=0;entryPerimeter=0;startArrow=classic;startFill=1;strokeColor=#1D0101;fontSize=16;" parent="1" source="i9rdZxzAufRbEw3TYQ_S-27" target="i9rdZxzAufRbEw3TYQ_S-33" edge="1">
          <mxGeometry relative="1" as="geometry" />
        </mxCell>
        <mxCell id="i9rdZxzAufRbEw3TYQ_S-37" style="edgeStyle=orthogonalEdgeStyle;rounded=0;orthogonalLoop=1;jettySize=auto;html=1;entryX=0.138;entryY=0.025;entryDx=0;entryDy=0;entryPerimeter=0;endArrow=none;endFill=0;startArrow=classic;startFill=1;strokeColor=#1D0101;fontSize=16;" parent="1" source="i9rdZxzAufRbEw3TYQ_S-6" target="i9rdZxzAufRbEw3TYQ_S-12" edge="1">
          <mxGeometry relative="1" as="geometry" />
        </mxCell>
        <mxCell id="i9rdZxzAufRbEw3TYQ_S-38" style="edgeStyle=orthogonalEdgeStyle;rounded=0;orthogonalLoop=1;jettySize=auto;html=1;entryX=0.681;entryY=-0.008;entryDx=0;entryDy=0;entryPerimeter=0;strokeColor=#1D0101;fontSize=16;" parent="1" source="i9rdZxzAufRbEw3TYQ_S-10" target="i9rdZxzAufRbEw3TYQ_S-12" edge="1">
          <mxGeometry relative="1" as="geometry" />
        </mxCell>
        <mxCell id="i9rdZxzAufRbEw3TYQ_S-39" style="edgeStyle=orthogonalEdgeStyle;rounded=0;orthogonalLoop=1;jettySize=auto;html=1;entryX=0.86;entryY=0;entryDx=0;entryDy=0;entryPerimeter=0;strokeColor=#1D0101;fontSize=16;" parent="1" source="i9rdZxzAufRbEw3TYQ_S-11" target="i9rdZxzAufRbEw3TYQ_S-12" edge="1">
          <mxGeometry relative="1" as="geometry" />
        </mxCell>
        <mxCell id="i9rdZxzAufRbEw3TYQ_S-40" style="edgeStyle=orthogonalEdgeStyle;rounded=0;orthogonalLoop=1;jettySize=auto;html=1;entryX=0.319;entryY=-0.004;entryDx=0;entryDy=0;entryPerimeter=0;startArrow=classic;startFill=1;endArrow=none;endFill=0;strokeColor=#1D0101;fontSize=16;" parent="1" source="i9rdZxzAufRbEw3TYQ_S-7" target="i9rdZxzAufRbEw3TYQ_S-12" edge="1">
          <mxGeometry relative="1" as="geometry" />
        </mxCell>
        <mxCell id="i9rdZxzAufRbEw3TYQ_S-41" style="edgeStyle=orthogonalEdgeStyle;rounded=0;orthogonalLoop=1;jettySize=auto;html=1;curved=1;strokeColor=#1D0101;fontSize=16;" parent="1" source="i9rdZxzAufRbEw3TYQ_S-4" target="i9rdZxzAufRbEw3TYQ_S-10" edge="1">
          <mxGeometry relative="1" as="geometry" />
        </mxCell>
        <mxCell id="i9rdZxzAufRbEw3TYQ_S-42" style="edgeStyle=orthogonalEdgeStyle;rounded=0;orthogonalLoop=1;jettySize=auto;html=1;curved=1;strokeColor=#1D0101;fontSize=16;" parent="1" source="i9rdZxzAufRbEw3TYQ_S-4" target="i9rdZxzAufRbEw3TYQ_S-11" edge="1">
          <mxGeometry relative="1" as="geometry" />
        </mxCell>
        <mxCell id="i9rdZxzAufRbEw3TYQ_S-43" style="edgeStyle=orthogonalEdgeStyle;rounded=0;orthogonalLoop=1;jettySize=auto;html=1;entryX=0.5;entryY=0;entryDx=0;entryDy=0;startArrow=classic;startFill=1;endArrow=none;endFill=0;strokeColor=#1D0101;curved=1;fontSize=16;" parent="1" source="i9rdZxzAufRbEw3TYQ_S-3" target="i9rdZxzAufRbEw3TYQ_S-6" edge="1">
          <mxGeometry relative="1" as="geometry" />
        </mxCell>
        <mxCell id="i9rdZxzAufRbEw3TYQ_S-44" style="edgeStyle=orthogonalEdgeStyle;rounded=0;orthogonalLoop=1;jettySize=auto;html=1;entryX=0.5;entryY=0;entryDx=0;entryDy=0;startArrow=classic;startFill=1;endArrow=none;endFill=0;strokeColor=#1D0101;curved=1;fontSize=16;" parent="1" source="i9rdZxzAufRbEw3TYQ_S-3" target="i9rdZxzAufRbEw3TYQ_S-7" edge="1">
          <mxGeometry relative="1" as="geometry" />
        </mxCell>
        <mxCell id="i9rdZxzAufRbEw3TYQ_S-2" style="edgeStyle=orthogonalEdgeStyle;rounded=0;orthogonalLoop=1;jettySize=auto;html=1;entryX=0.5;entryY=0;entryDx=0;entryDy=0;curved=1;startArrow=classic;startFill=1;endArrow=classic;endFill=1;strokeColor=#1D0101;fontSize=16;" parent="1" source="i9rdZxzAufRbEw3TYQ_S-3" target="i9rdZxzAufRbEw3TYQ_S-10" edge="1">
          <mxGeometry relative="1" as="geometry">
            <Array as="points">
              <mxPoint x="540" y="90" />
              <mxPoint x="540" y="150" />
              <mxPoint x="640" y="150" />
            </Array>
          </mxGeometry>
        </mxCell>
      </root>
    </mxGraphModel>
  </diagram>
</mxfile>
